<svg width="70" height="70" viewBox="0 0 70 70" fill="none" xmlns="http://www.w3.org/2000/svg">
<g clip-path="url(#clip0_6311_443)">
<path d="M69.8804 40.8051L65.3518 31.7478C65.2575 31.5598 65.1128 31.4018 64.9339 31.2913C64.7549 31.1809 64.5488 31.1223 64.3385 31.1223H5.46629C5.25599 31.1223 5.04985 31.1809 4.87091 31.2913C4.69197 31.4018 4.54727 31.5598 4.45301 31.7478L-0.0756249 40.8051C-0.16203 40.9778 -0.202838 41.1697 -0.194171 41.3626C-0.185504 41.5554 -0.12765 41.7429 -0.0261076 41.9071C0.0754347 42.0714 0.217291 42.2069 0.385977 42.3008C0.554663 42.3948 0.744573 42.444 0.937656 42.4439H7.7306V66.2192C7.7306 66.5195 7.84988 66.8074 8.06221 67.0198C8.27453 67.2321 8.5625 67.3514 8.86276 67.3514H60.942C61.2423 67.3514 61.5303 67.2321 61.7426 67.0198C61.9549 66.8074 62.0742 66.5195 62.0742 66.2192V42.4439H68.8671C69.0602 42.444 69.2501 42.3948 69.4188 42.3008C69.5875 42.2069 69.7294 42.0714 69.8309 41.9071C69.9324 41.7429 69.9903 41.5554 69.999 41.3626C70.0076 41.1697 69.9668 40.9778 69.8804 40.8051ZM2.76892 40.1796L6.1654 33.3866H33.0711L29.6747 40.1796H2.76892ZM33.7702 65.087H9.99492V42.4439H30.3738C30.5841 42.4439 30.7902 42.3853 30.9691 42.2749C31.1481 42.1644 31.2928 42.0064 31.387 41.8184L33.7702 37.0506V65.087ZM59.8099 65.087H36.0346V37.0506L38.4177 41.8184C38.512 42.0064 38.6567 42.1644 38.8356 42.2749C39.0146 42.3853 39.2207 42.4439 39.431 42.4439H59.8099V65.087ZM40.1301 40.1796L36.7337 33.3866H63.6394L67.0359 40.1796H40.1301Z" fill="#D2D2D2"/>
<path d="M28.2558 16.6361L27.0862 23.5666C27.0607 23.7179 27.0773 23.8733 27.1342 24.0154C27.1911 24.1575 27.286 24.2806 27.4082 24.3708C27.5304 24.461 27.675 24.5147 27.8256 24.5257C27.9762 24.5368 28.1269 24.5048 28.2606 24.4334L34.3874 21.1612L40.5143 24.4334C40.648 24.5048 40.7986 24.5368 40.9493 24.5257C41.0999 24.5147 41.2445 24.461 41.3667 24.3708C41.4888 24.2806 41.5838 24.1575 41.6407 24.0154C41.6976 23.8733 41.7142 23.7179 41.6887 23.5666L40.519 16.6361L45.4753 11.7278C45.5835 11.6207 45.66 11.4849 45.6962 11.336C45.7324 11.187 45.7269 11.0307 45.6802 10.8848C45.6335 10.7388 45.5476 10.6091 45.4321 10.5102C45.3166 10.4113 45.1762 10.3472 45.0267 10.3251L38.1767 9.31401L35.1133 3.00845C35.0465 2.87085 34.9431 2.755 34.8148 2.67399C34.6865 2.59298 34.5385 2.55005 34.3874 2.55005C34.2364 2.55005 34.0884 2.59298 33.9601 2.67399C33.8318 2.755 33.7284 2.87085 33.6616 3.00845L30.5982 9.31411L23.7482 10.3252C23.5987 10.3473 23.4583 10.4114 23.3429 10.5103C23.2274 10.6092 23.1415 10.7389 23.0948 10.8848C23.0481 11.0308 23.0426 11.187 23.0788 11.336C23.1149 11.4849 23.1914 11.6207 23.2996 11.7278L28.2558 16.6361ZM31.2517 10.8795C31.3816 10.8603 31.5049 10.8093 31.6111 10.7309C31.7173 10.6525 31.8031 10.5491 31.8611 10.4296L34.3874 5.23039L36.9133 10.4296C36.9714 10.5491 37.0572 10.6525 37.1634 10.7309C37.2695 10.8093 37.3929 10.8603 37.5227 10.8795L43.1709 11.7132L39.0839 15.7602C38.9899 15.8533 38.9196 15.9681 38.8791 16.0949C38.8386 16.2217 38.829 16.3566 38.8512 16.488L39.8159 22.203L34.7642 19.5049C34.6481 19.4429 34.5188 19.4104 34.3875 19.4104C34.2563 19.4104 34.127 19.4429 34.0108 19.5049L28.9591 22.2025L29.9238 16.488C29.946 16.3566 29.9364 16.2217 29.8959 16.0949C29.8553 15.9681 29.7851 15.8533 29.6911 15.7602L25.604 11.7132L31.2517 10.8795Z" fill="#C6C6C6"/>
<path d="M7.66735 20.0252L10.8514 21.7903L11.0521 25.1678C11.0606 25.3123 11.1137 25.4517 11.2051 25.5703C11.2966 25.6889 11.4228 25.782 11.5696 25.839C11.7164 25.8959 11.8778 25.9145 12.0357 25.8927C12.1935 25.8709 12.3414 25.8094 12.4628 25.7154L15.2991 23.5166L18.9057 24.3874C19.06 24.4247 19.2228 24.4221 19.3755 24.3799C19.5283 24.3377 19.665 24.2577 19.7701 24.1487C19.8753 24.0398 19.9447 23.9064 19.9705 23.7636C19.9964 23.6208 19.9776 23.4742 19.9163 23.3406L18.4851 20.2168L20.5137 17.3774C20.6004 17.2559 20.648 17.1149 20.6509 16.9703C20.6538 16.8256 20.612 16.6831 20.5303 16.5588C20.4485 16.4346 20.33 16.3335 20.1881 16.2671C20.0463 16.2007 19.8868 16.1716 19.7276 16.183L16.007 16.4512L13.6538 13.8256C13.5531 13.7133 13.4198 13.6288 13.2689 13.5815C13.118 13.5343 12.9555 13.5263 12.7998 13.5584C12.6441 13.5905 12.5015 13.6614 12.3879 13.7631C12.2744 13.8648 12.1946 13.9933 12.1574 14.134L11.289 17.4236L7.8063 18.6403C7.65732 18.6923 7.52738 18.7811 7.43116 18.8965C7.33495 19.012 7.27629 19.1495 7.26182 19.2936C7.24736 19.4377 7.27766 19.5826 7.3493 19.7118C7.42095 19.8411 7.53119 19.9497 7.66735 20.0252ZM12.3241 18.7241C12.4535 18.6789 12.5688 18.6059 12.6601 18.5113C12.7514 18.4168 12.816 18.3035 12.8483 18.1813L13.4185 16.023L14.9621 17.7454C15.0497 17.8429 15.1621 17.9196 15.2896 17.9691C15.4171 18.0186 15.5559 18.0393 15.6942 18.0295L18.1351 17.8537L16.8044 19.7163C16.729 19.8218 16.683 19.9424 16.6705 20.0676C16.6579 20.1928 16.6792 20.3189 16.7324 20.435L17.6712 22.4843L15.3052 21.9131C15.1711 21.8808 15.0304 21.8784 14.8951 21.9063C14.7598 21.9342 14.6341 21.9914 14.5286 22.0732L12.6677 23.5156L12.536 21.2998C12.5286 21.1743 12.4876 21.0523 12.4165 20.9444C12.3455 20.8364 12.2465 20.7457 12.1282 20.6801L10.0393 19.5222L12.3241 18.7241Z" fill="#C6C6C6"/>
<path d="M49.3065 14.9806C49.2183 15.1007 49.1661 15.2428 49.1557 15.3906C49.1453 15.5384 49.1771 15.6862 49.2476 15.8171L50.894 18.8785L49.2659 21.9491C49.1963 22.0805 49.1653 22.2284 49.1766 22.3762C49.1879 22.524 49.241 22.6657 49.3298 22.7853C49.4186 22.9049 49.5397 22.9977 49.6793 23.0531C49.8189 23.1085 49.9714 23.1244 50.1197 23.0989L53.5854 22.5033L56.0486 24.9766C56.154 25.0824 56.2873 25.1571 56.4335 25.1921C56.5797 25.2272 56.733 25.2213 56.876 25.1751C57.019 25.1289 57.146 25.0442 57.2426 24.9307C57.3393 24.8171 57.4018 24.6792 57.423 24.5325L57.9187 21.1032L61.0689 19.561C61.2037 19.495 61.317 19.3933 61.396 19.2672C61.4751 19.1411 61.5168 18.9958 61.5163 18.8476C61.5159 18.6995 61.4734 18.5544 61.3935 18.4288C61.3137 18.3032 61.1998 18.202 61.0647 18.1368L57.9052 16.6129L57.389 13.1865C57.3669 13.0399 57.3036 12.9023 57.2063 12.7893C57.1089 12.6763 56.9814 12.5923 56.8381 12.5469C56.6949 12.5016 56.5415 12.4966 56.3955 12.5325C56.2495 12.5684 56.1166 12.6439 56.0119 12.7503L53.5636 15.238L50.0944 14.6623C49.9459 14.6375 49.7934 14.6542 49.6542 14.7105C49.5149 14.7668 49.3944 14.8603 49.3065 14.9806ZM53.7138 16.8735C53.8428 16.8949 53.975 16.8851 54.0993 16.8449C54.2235 16.8048 54.336 16.7355 54.427 16.643L56.0331 15.0112L56.3718 17.2589C56.391 17.3863 56.4413 17.5071 56.5185 17.611C56.5956 17.715 56.6973 17.7989 56.8147 17.8555L58.8874 18.8552L56.8206 19.8668C56.7035 19.9242 56.6023 20.0087 56.5258 20.1131C56.4492 20.2175 56.3996 20.3386 56.3812 20.4661L56.0559 22.7157L54.4403 21.0933C54.3488 21.0013 54.2359 20.9327 54.1114 20.8933C53.9869 20.8538 53.8545 20.8448 53.7257 20.8669L51.4522 21.2576L52.5202 19.2433C52.5807 19.1291 52.6121 19.0022 52.6117 18.8734C52.6114 18.7447 52.5792 18.6179 52.518 18.5041L51.4384 16.496L53.7138 16.8735Z" fill="#C6C6C6"/>
</g>
<defs>
<clipPath id="clip0_6311_443">
<rect width="70" height="70" fill="white"/>
</clipPath>
</defs>
</svg>
