<svg width="70" height="70" viewBox="0 0 70 70" fill="none" xmlns="http://www.w3.org/2000/svg">
<path d="M64 37.3408V15.9616C64 15.4439 63.5802 15.0241 63.0625 15.0241H56.9859V3.9375C56.9859 3.41975 56.5661 3 56.0484 3H32C31.4823 3 31.0625 3.41975 31.0625 3.9375V9.01213H20.9779C20.4601 9.01213 20.0404 9.43188 20.0404 9.94963V15.0243H15.0548L13.1909 7.7245C12.6313 5.53275 10.6606 4.002 8.39875 4.002H2.9415C1.31962 4.002 0 5.32162 0 6.9435C0 8.5655 1.31962 9.885 2.9415 9.885H7.67063L18.1667 50.9956C19.067 54.519 22.2353 56.9798 25.8715 56.9798H61.0585C62.6805 56.9798 64 55.6601 64 54.0382C64 52.4162 62.6804 51.0967 61.0585 51.0967H25.8715C24.9255 51.0967 24.1012 50.4565 23.8673 49.5399L22.9249 45.8491L60.5226 41.2565C62.5051 41.0206 64 39.3371 64 37.3408ZM21.9154 10.8871H37.0746V15.0243H21.9154V10.8871ZM22.4573 44.0174L16.876 22.1576C16.7479 21.656 16.2376 21.3533 15.7356 21.4811C15.234 21.6092 14.9311 22.1198 15.0591 22.6215L22.0504 50.0039C22.4965 51.7514 24.0677 52.9719 25.8714 52.9719H61.0584C61.6465 52.9719 62.1249 53.4503 62.1249 54.0384C62.1249 54.6264 61.6464 55.1049 61.0584 55.1049H25.8715C23.0928 55.1049 20.6714 53.2243 19.9835 50.5317L9.30725 8.71575C9.20125 8.30063 8.82738 8.01013 8.39888 8.01013H2.9415C2.35337 8.01013 1.875 7.53162 1.875 6.94362C1.875 6.35562 2.3535 5.87713 2.9415 5.87713H8.39875C9.80313 5.87713 11.0266 6.82763 11.3741 8.18837L14.0573 18.6973C14.1854 19.1989 14.6959 19.5018 15.1976 19.3738C15.6993 19.2456 16.0021 18.7351 15.8741 18.2334L15.5335 16.8994H50.0366C50.5544 16.8994 50.9741 16.4797 50.9741 15.9619C50.9741 15.4441 50.5544 15.0244 50.0366 15.0244H38.9496V9.94963C38.9496 9.43188 38.5299 9.01213 38.0121 9.01213H32.9375V4.875H55.1109V15.0241H54.044C53.5262 15.0241 53.1065 15.4439 53.1065 15.9616C53.1065 16.4795 53.5262 16.8991 54.044 16.8991H62.125V37.3406C62.125 38.3878 61.3409 39.2709 60.2981 39.395L22.4573 44.0174Z" fill="#D2D2D2"/>
<path d="M19.9757 59.1128C17.8012 59.1128 16.0322 60.8818 16.0322 63.0563C16.0322 65.2308 17.8012 66.9999 19.9757 66.9999C22.1502 66.9999 23.9192 65.2309 23.9192 63.0564C23.9192 60.8819 22.1502 59.1128 19.9757 59.1128ZM19.9757 65.1249C18.8351 65.1249 17.9072 64.1969 17.9072 63.0564C17.9072 61.9159 18.8351 60.9879 19.9757 60.9879C21.1164 60.9879 22.0442 61.9159 22.0442 63.0564C22.0442 64.1969 21.1164 65.1249 19.9757 65.1249Z" fill="#C6C6C6"/>
<path d="M60.0563 59.1128C57.8818 59.1128 56.1128 60.8818 56.1128 63.0563C56.1128 65.2308 57.8818 66.9999 60.0563 66.9999C62.2308 66.9999 63.9998 65.2309 63.9998 63.0564C63.9998 60.8819 62.2308 59.1128 60.0563 59.1128ZM60.0563 65.1249C58.9157 65.1249 57.9878 64.1969 57.9878 63.0564C57.9878 61.9159 58.9157 60.9879 60.0563 60.9879C61.1969 60.9879 62.1248 61.9158 62.1248 63.0564C62.1248 64.197 61.1969 65.1249 60.0563 65.1249Z" fill="#C6C6C6"/>
<path d="M25.9878 21.0361C25.47 21.0361 25.0503 21.4559 25.0503 21.9736V38.4965C25.0503 39.0144 25.47 39.434 25.9878 39.434C26.5055 39.434 26.9253 39.0144 26.9253 38.4965V21.9736C26.9253 21.4559 26.5055 21.0361 25.9878 21.0361Z" fill="#D2D2D2"/>
<path d="M32 21.0361C31.4822 21.0361 31.0625 21.4559 31.0625 21.9736V37.745C31.0625 38.2628 31.4822 38.6825 32 38.6825C32.5178 38.6825 32.9375 38.2628 32.9375 37.745V21.9736C32.9375 21.4559 32.5178 21.0361 32 21.0361Z" fill="#D2D2D2"/>
<path d="M38.0122 21.0361C37.4945 21.0361 37.0747 21.4559 37.0747 21.9736V37.0248C37.0747 37.5425 37.4945 37.9623 38.0122 37.9623C38.53 37.9623 38.9497 37.5425 38.9497 37.0248V21.9736C38.9497 21.4559 38.53 21.0361 38.0122 21.0361Z" fill="#D2D2D2"/>
<path d="M44.0239 21.0361C43.5062 21.0361 43.0864 21.4559 43.0864 21.9736V36.2733C43.0864 36.791 43.5062 37.2108 44.0239 37.2108C44.5417 37.2108 44.9614 36.791 44.9614 36.2733V21.9736C44.9614 21.4559 44.5417 21.0361 44.0239 21.0361Z" fill="#D2D2D2"/>
<path d="M50.0361 21.0361C49.5184 21.0361 49.0986 21.4559 49.0986 21.9736V35.5218C49.0986 36.0396 49.5184 36.4593 50.0361 36.4593C50.5539 36.4593 50.9736 36.0396 50.9736 35.5218V21.9736C50.9736 21.4559 50.5539 21.0361 50.0361 21.0361Z" fill="#D2D2D2"/>
<path d="M56.0483 21.0361C55.5306 21.0361 55.1108 21.4559 55.1108 21.9736V34.8329C55.1108 35.3506 55.5306 35.7704 56.0483 35.7704C56.5661 35.7704 56.9858 35.3506 56.9858 34.8329V21.9736C56.9858 21.4559 56.5661 21.0361 56.0483 21.0361Z" fill="#D2D2D2"/>
</svg>
